<svg id="Capa_1" enable-background="new 0 0 512 512" height="512" viewBox="0 0 512 512" width="512" xmlns="http://www.w3.org/2000/svg"><g><g><path d="m492.8 358.4c10.604 0 19.2-8.596 19.2-19.2v-320c0-10.604-8.597-19.2-19.2-19.2h-405.334c-10.604 0-19.2 8.596-19.2 19.2v320c0 10.604 8.596 19.2 19.2 19.2z" fill="#b37059"/><path d="m102.4 324.267v-281.6c0-4.713 3.82-8.533 8.533-8.533h358.4c4.713 0 8.533 3.82 8.533 8.533v273.067c0 4.713-3.82 8.533-8.533 8.533z" fill="#595353"/><path d="m492.8 0h-23.694c10.604 0 19.2 8.596 19.2 19.2v320c0 10.604-8.596 19.2-19.2 19.2h23.694c10.604 0 19.2-8.596 19.2-19.2v-320c0-10.604-8.597-19.2-19.2-19.2z" fill="#995a4d"/><path d="m469.333 34.133h-23.694c4.713 0 8.533 3.82 8.533 8.533v273.067c0 4.713-3.82 8.533-8.533 8.533h23.694c4.713 0 8.533-3.82 8.533-8.533v-273.066c0-4.713-3.82-8.534-8.533-8.534z" fill="#403939"/></g><g><path d="m307.2 319.927c-4.268 0-7.726-3.459-7.726-7.726v-141.534c0-4.267 3.459-7.726 7.726-7.726 4.268 0 7.726 3.459 7.726 7.726v141.533c0 4.267-3.459 7.727-7.726 7.727z" fill="#995a4d"/></g><g><path d="m102.401 392.536h-34.138c-37.7-.001-68.263 30.562-68.263 68.262v34.135c0 9.426 7.642 17.067 17.067 17.067h255.998c9.426 0 17.067-7.641 17.067-17.067v-34.135c0-37.701-30.562-68.263-68.263-68.263h-34.139-85.329z" fill="#68d9c0"/><g><g><path d="m221.869 392.535h-23.679c37.694.008 68.249 30.567 68.249 68.262v34.135c0 9.426-7.641 17.067-17.067 17.067h23.693c9.426 0 17.067-7.641 17.067-17.067v-34.135c0-37.699-30.562-68.262-68.263-68.262z" fill="#4fc6b9"/></g></g><path d="m102.4 342.279h85.333v77.518h-85.333z" fill="#fb9"/><path d="m42.667 209.899v-39.233c0-37.703 30.564-68.267 68.267-68.267h68.267c37.703 0 68.267 30.564 68.267 68.267v39.233z" fill="#595353"/><path d="m247.467 273.067c9.426 0 17.067-7.641 17.067-17.067v-34.133c0-9.426-7.641-17.067-17.067-17.067h-204.799c-9.426 0-17.067 7.641-17.067 17.067v34.133c0 9.426 7.641 17.067 17.067 17.067z" fill="#fb9"/><path d="m247.467 204.8h-17.067-6.628c9.426 0 17.067 7.641 17.067 17.067v34.133c0 9.426-7.641 17.067-17.067 17.067h6.628 17.067c9.426 0 17.067-7.641 17.067-17.067v-34.133c0-9.426-7.641-17.067-17.067-17.067z" fill="#ffa27d"/><path d="m59.735 165.087.001 107.983c0 47.128 38.204 85.332 85.332 85.332s85.332-38.205 85.332-85.332v-107.983z" fill="#ffd9b3"/><g><g><path d="m110.934 255.193c-4.267 0-7.726-3.459-7.726-7.726v-8.533c0-4.268 3.459-7.726 7.726-7.726s7.726 3.459 7.726 7.726v8.533c.001 4.267-3.459 7.726-7.726 7.726z" fill="#595353"/></g></g><g><g><path d="m179.201 255.193c-4.267 0-7.726-3.459-7.726-7.726v-8.533c0-4.268 3.459-7.726 7.726-7.726s7.726 3.459 7.726 7.726v8.533c0 4.267-3.459 7.726-7.726 7.726z" fill="#595353"/></g></g><g><path d="m145.068 297.862c-8.809 0-17.032-4.746-21.46-12.386-2.14-3.691-.882-8.419 2.81-10.559 3.692-2.139 8.419-.882 10.559 2.811 1.674 2.888 4.774 4.682 8.091 4.682s6.418-1.794 8.092-4.682c2.141-3.692 6.87-4.948 10.56-2.809 3.691 2.141 4.949 6.868 2.808 10.559-4.429 7.639-12.652 12.384-21.46 12.384z" fill="#ff7f40"/></g><path d="m195.529 412.8h-100.925l50.463 68.267z" fill="#cfd7e6"/><path d="m59.734 204.8h71.133c28.277 0 51.2-22.923 51.2-51.2v-20.707h-122.332l-6.681 37.773z" fill="#595353"/><path d="m230.401 204.8h-17.067c-18.851 0-34.133-15.282-34.133-34.133v-14.517h53.105z" fill="#595353"/><path d="m223.773 204.8h23.694v-34.133c0-37.703-30.564-68.267-68.267-68.267h-23.693c37.702.001 68.265 30.565 68.265 68.267v34.133z" fill="#403939"/><path d="m145.067 481.067-68.524-45.683c-4.351-2.901-5.093-8.998-1.565-12.858l27.419-29.993 42.67 88.534 42.669-88.533 27.42 29.993c3.529 3.86 2.787 9.957-1.564 12.858-.001-.001-68.525 45.682-68.525 45.682z" fill="#f3f5f9"/></g><g><path d="m338.311 437.655v-73.83h-67.379v40.441c0 12.372 10.028 22.4 22.4 22.4v10.989z" fill="#fb9"/><path d="m342.4 512h-53.333c-8.837 0-16-7.163-16-16v-61.333c0-4.418 3.582-8 8-8h69.333c4.418 0 8 3.582 8 8v61.333c0 8.837-7.164 16-16 16z" fill="#68d9c0"/><path d="m350.158 426.667h-23.694c4.551 0 8.241 3.69 8.241 8.241v60.609c0 9.103-7.38 16.483-16.483 16.483h23.694c9.103 0 16.483-7.38 16.483-16.483v-60.609c.001-4.552-3.689-8.241-8.241-8.241z" fill="#4fc6b9"/><path d="m310.084 310.99h-11.75c-3.564-2.392-7.853-3.788-12.468-3.788-12.372 0-22.4 10.028-22.4 22.4v29.865c0 12.372 10.028 22.4 22.4 22.4 2.639 0 5.171-.456 7.522-1.294h16.697v-69.583z" fill="#ffd9b3"/><path d="m338.132 307.2h-29.453c-7.792 0-14.591 5.798-15.285 13.559-.62 6.932 3.503 12.987 9.488 15.302.422.163.71.555.71 1.007 0 .454-.289.846-.712 1.01-5.584 2.161-9.547 7.575-9.547 13.922 0 6.346 3.962 11.759 9.545 13.921.424.164.714.558.714 1.013 0 .454-.289.847-.712 1.011-5.713 2.211-9.729 7.826-9.541 14.362.235 8.148 7.216 14.493 15.367 14.493.589 0 1.066.478 1.066 1.066v.522c0 .414-.245.783-.619.961-5.239 2.501-8.749 7.07-8.319 13.428.534 7.901 7.401 13.889 15.32 13.889h21.978c16.495 0 29.867-13.372 29.867-29.867v-59.733c0-16.494-13.372-29.866-29.867-29.866z" fill="#ffd9b3"/><g fill="#fb9"><path d="m338.132 307.2h-23.694c16.495 0 29.867 13.372 29.867 29.867v59.733c0 16.121-12.774 29.251-28.751 29.838.201.008.398.028.6.028h21.978c16.495 0 29.867-13.372 29.867-29.867v-59.733c0-16.494-13.372-29.866-29.867-29.866z"/><g><path d="m328.605 329.341h-33.41c1.687 3.049 4.403 5.45 7.687 6.72.422.163.71.555.71 1.008s-.288.846-.712 1.01c-3.282 1.27-5.995 3.669-7.682 6.715h33.407c4.268 0 7.726-3.459 7.726-7.726.001-4.268-3.458-7.727-7.726-7.727z"/><path d="m328.605 359.207h-33.407c1.686 3.046 4.399 5.444 7.68 6.714.424.164.714.558.714 1.013 0 .454-.289.847-.712 1.011-3.282 1.27-5.998 3.668-7.685 6.714h33.411c4.268 0 7.726-3.459 7.726-7.726s-3.459-7.726-7.727-7.726z"/><path d="m328.605 389.076h-33.348c2.655 4.632 7.763 7.724 13.449 7.724.589 0 1.066.478 1.066 1.066v.522c0 .414-.245.783-.619.961-2.584 1.234-4.744 2.973-6.222 5.179h25.673c4.268 0 7.726-3.459 7.726-7.726.002-4.267-3.457-7.726-7.725-7.726z"/></g></g></g></g></svg>