<svg id="SvgjsSvg1006" width="288" height="288" xmlns="http://www.w3.org/2000/svg" version="1.1" xmlns:xlink="http://www.w3.org/1999/xlink" xmlns:svgjs="http://svgjs.com/svgjs"><defs id="SvgjsDefs1007"></defs><g id="SvgjsG1008" transform="matrix(1,0,0,1,0,0)"><svg xmlns="http://www.w3.org/2000/svg" width="288" height="288" viewBox="0 0 32 32"><path fill-rule="evenodd" d="M 5 24 C 5 23.449219 5.449219 23 6 23 L 26 23 C 26.550781 23 27 23.449219 27 24 C 27 24.550781 26.550781 25 26 25 L 6 25 C 5.449219 25 5 24.550781 5 24 Z M 5 16 C 5 15.449219 5.449219 15 6 15 L 26 15 C 26.550781 15 27 15.449219 27 16 C 27 16.550781 26.550781 17 26 17 L 6 17 C 5.449219 17 5 16.550781 5 16 Z M 5 8 C 5 7.449219 5.449219 7 6 7 L 26 7 C 26.550781 7 27 7.449219 27 8 C 27 8.550781 26.550781 9 26 9 L 6 9 C 5.449219 9 5 8.550781 5 8 Z M 5 8 " fill="#5eefe1" class="color000 svgShape"></path></svg></g></svg>